<?xml version="1.0" encoding="UTF-8" standalone="no"?>
<!DOCTYPE svg PUBLIC "-//W3C//DTD SVG 1.1//EN" "http://www.w3.org/Graphics/SVG/1.1/DTD/svg11.dtd">
<svg version="1.1" xmlns="http://www.w3.org/2000/svg" xmlns:xlink="http://www.w3.org/1999/xlink" preserveAspectRatio="xMidYMid meet" viewBox="233.97357932082966 200.0377748268612 161.65797466359234 230.44491184282043" width="160" height="230"><defs><path d="M395.42 257.41C398.22 291.7 372.47 321.74 337.95 324.47C303.44 327.19 273.14 301.57 270.34 267.29C267.55 233.01 293.3 202.96 327.81 200.24C362.33 197.51 392.63 223.13 395.42 257.41Z" id="h540Hdm6nw"></path><path d="M344.23 330.59C346.69 360.75 324.03 387.19 293.65 389.59C263.28 391.99 236.62 369.44 234.16 339.28C231.69 309.11 254.36 282.67 284.73 280.27C315.1 277.87 341.76 300.42 344.23 330.59Z" id="bY9eSi1H1"></path><path d="M391.39 384.75C393.29 408.06 375.78 428.49 352.31 430.35C328.84 432.2 308.24 414.78 306.34 391.47C304.43 368.15 321.94 347.72 345.41 345.87C368.89 344.02 389.49 361.44 391.39 384.75Z" id="e6RhQOVfQ"></path><path d="M259.74 417.03C260.3 423.89 255.15 429.9 248.25 430.44C241.34 430.99 235.28 425.86 234.72 419.01C234.16 412.15 239.32 406.14 246.22 405.6C253.12 405.05 259.18 410.18 259.74 417.03Z" id="e4coiFR1eW"></path><path d="M259.74 211.51C260.3 218.37 255.15 224.38 248.25 224.92C241.34 225.47 235.28 220.34 234.72 213.49C234.16 206.63 239.32 200.62 246.22 200.08C253.12 199.53 259.18 204.66 259.74 211.51Z" id="d2G5Mfyp5"></path><path d="M395.59 329.67C396.15 336.52 391 342.53 384.1 343.08C377.19 343.62 371.13 338.5 370.57 331.64C370.01 324.79 375.16 318.78 382.07 318.23C388.97 317.69 395.03 322.81 395.59 329.67Z" id="a4WDCMHOY"></path></defs><g><g><g><use xlink:href="#h540Hdm6nw" opacity="1" fill="#101010" fill-opacity="0.8"></use></g><g><use xlink:href="#bY9eSi1H1" opacity="1" fill="#101010" fill-opacity="0.8"></use></g><g><use xlink:href="#e6RhQOVfQ" opacity="1" fill="#101010" fill-opacity="0.8"></use></g><g><use xlink:href="#e4coiFR1eW" opacity="1" fill="#101010" fill-opacity="0.8"></use></g><g><use xlink:href="#d2G5Mfyp5" opacity="1" fill="#101010" fill-opacity="0.8"></use></g><g><use xlink:href="#a4WDCMHOY" opacity="1" fill="#101010" fill-opacity="0.8"></use></g></g></g></svg>